<svg xmlns="http://www.w3.org/2000/svg" viewBox="0 0 500 500"><g id="freepik--Chair--inject-7"><polygon points="58.78 402.76 193.35 402.76 166.52 246.67 65.89 246.67 58.78 402.76" style="fill:#dbdbdb"></polygon><polygon points="58.78 402.76 70.58 402.76 77.2 246.67 65.89 246.67 58.78 402.76" style="fill:#a6a6a6"></polygon></g><g id="freepik--Character--inject-7"><path d="M177,267.22c8.79,38.29,27,84.19,34.77,91.64,9.83,9.43,74.86,26.7,78.1,27.05,8,.82,24.12-57,15.57-58.24-13-1.88-60.36-4.45-63.2-7.37s-22.92-28.24-43.47-56.71C184.59,243.92,171.55,243.46,177,267.22Z" style="fill:#ad6359"></path><path d="M283.42,382.8c1,.48,14.55,7.32,22.95,9.75,6.27,1.82,24.45,6.56,27.14-.14,1.83-4.57-8.53-8.62-15.8-11.64-3.82-1.6-8.54-5.61-7.41-8.07,2-4.3,11.82,0,18.3,3.79,12.53,7.28,29.22,20.38,36.88,14,2.89-2.41-.47-6.78-5.39-11.07,8,5,16.48,9.1,19.8,6.56,1.9-1.45,2-3.44.93-5.71,2.47.8,4.64.65,6.16-1,2.59-2.71,1.33-6.71-1.51-10.82a3.09,3.09,0,0,0,2.36-1.55c5.48-8.37-22-32.4-31.49-34.64-28-6.65-57.41-5.41-57.41-5.41C288,335.69,283.4,382.78,283.42,382.8Z" style="fill:#ad6359"></path><path d="M324.53,357.06a47.59,47.59,0,0,1,18.65,7.18c7.08,4.68,11.78,10.15,17.73,15.67a.16.16,0,0,1-.22.24c-2.83-2.62-14.57-12.47-17.61-14.71a45.14,45.14,0,0,0-18.57-8.26A.06.06,0,0,1,324.53,357.06Z" style="fill:#263238"></path><path d="M329.74,345.2c7.35,2,14.87,4,21.69,7.52,7.47,3.8,13.31,10,19.05,16q5.17,5.37,10.1,11c.14.16-.07.41-.22.25q-8.73-9.26-18-18a59.86,59.86,0,0,0-19.78-12.47c-4.21-1.6-8.53-2.88-12.84-4.15C329.63,345.31,329.66,345.18,329.74,345.2Z" style="fill:#263238"></path><path d="M337.59,334.83c7.14,1.46,13.36,2.72,19.69,6.54,8.36,5.07,16.44,13.6,19.28,16.62,3.13,3.35,6.14,6.79,9.11,10.28.12.14-.13.35-.25.21a235.75,235.75,0,0,0-21.78-21.56A46.94,46.94,0,0,0,351.47,339a84.22,84.22,0,0,0-13.89-4.12S337.56,334.82,337.59,334.83Z" style="fill:#263238"></path><path d="M294.42,324.55l-20,63.36s-54.14-15.46-64-26.13S182.23,296,176.86,269.3s8.13-26.05,20.54-9.21,43.31,57.65,45,58.54S294.42,324.55,294.42,324.55Z" style="fill:#F3BA00"></path><path d="M269.23,359.76c2.42-7.47,4.9-14.92,7-22.48,1.22-4.3,2.46-8.59,3.64-12.9,0-.16-.23-.26-.29-.1-2.72,7.4-5.44,14.83-7.83,22.36s-4.82,14.95-7.1,22.47c-1.3,4.28-2.46,8.57-3.49,12.93a.08.08,0,0,0,.15,0C264.33,374.77,266.79,367.28,269.23,359.76Z" style="fill:#263238"></path><path d="M247.12,379.19l-2.4-.84c-6-2.15-12.19-4.5-17.67-6.89l-1.26-.55c-2.37-1.06-4.6-2.12-6.62-3.18l-1-.56a37.67,37.67,0,0,1-6.68-4.39c-.19-.17-.38-.34-.55-.51s-.35-.34-.5-.5c-9.9-10.67-28.16-65.77-33.53-92.48-.07-.35-.14-.73-.21-1.12-.36-2-.68-4.56-.94-7.29-.5-8.81,2.1-12.73,6.16-12.68C199.15,282.36,236.47,358.27,247.12,379.19Z" style="opacity:0.1"></path><path d="M226.77,402.76H89.87C88.36,400,110.8,280.08,157,246.31c10.24-7.49,28.41-2.67,33.47,4.61C215.84,287.53,226.77,402.76,226.77,402.76Z" style="fill:#F3BA00"></path><path d="M205,282.82q1.89,6.82,3.65,13.68c-.15-2-.37-4-.63-6,0-.11.17-.16.19,0a42.59,42.59,0,0,1,.82,7.47q2.1,8.25,4,16.59c2.34,10.65,4.43,21.37,6.16,32.13,1,6.07,1.73,12.18,2.76,18.24,0,.11-.16.16-.18,0-.95-5.37-2.21-10.71-3.38-16S216.08,338.31,215,333c-2.22-10.68-4.56-21.33-6.76-32-1.24-6-2.39-12.05-3.63-18.07A.22.22,0,0,1,205,282.82Z" style="fill:#263238"></path><path d="M141.45,258.16c-22.11,23.67-74.69,112.51-57.64,128.89S195.46,381.38,222,368.72c7.9-3.76-22.14-53.05-31.43-54.2-7.73-1-47.28,17.13-48.42,14.86-1.3-2.57,7.69-19.07,17.2-53.43C170.36,236.33,151.21,247.7,141.45,258.16Z" style="fill:#ad6359"></path><path d="M229.89,298.61c19.21-2.67,24.55-.41,39.57-11.28,9.85-7.13,18.63-3.9,13,7.43-9.19,18.54-33.26,27.2-42.46,27.8Z" style="fill:#ad6359"></path><path d="M178.85,317.11s21.59-12,41.78-16.87c14-3.37,45.16-7.32,75,23.46,7.08,7.3,12,22.73-3.9,15-11.29-5.48-16.79-12.37-23.94-14.37,0,0,3.92,20.36-3.67,27.17-3.4,3-12.85,11.13-21.11,16.37a39.12,39.12,0,0,1-3.42-3.67s-7.69,5.69-22.17,4.31Z" style="fill:#ad6359"></path><path d="M234.47,299.15c6.68,3.49,20.71,11.1,30,21.32,10.34,11.35,27.19,36,18.73,43.55-6.2,5.53-13.46-3.31-13.46-3.31s4.82,11.65-1.88,15.43c-6.1,3.43-11.31-3.75-11.31-3.75s1.71,7.58-4.8,9.75c-7.84,2.63-10.13-13.68-20.36-17.88C229.1,363.31,234.47,299.15,234.47,299.15Z" style="fill:#ad6359"></path><path d="M250.67,329.39c5.74,4.31,16.27,17.42,19.18,31,.07.31-.13.53-.25.26a150.85,150.85,0,0,0-19-31.17A.08.08,0,0,1,250.67,329.39Z" style="fill:#263238"></path><path d="M239.51,340.16c4.57,4.22,14.82,18.23,17.3,32.1.06.31-.15.51-.26.24a162.09,162.09,0,0,0-17.15-32.25C239.35,340.18,239.45,340.11,239.51,340.16Z" style="fill:#263238"></path><path d="M267.8,324.2c6.26,1.85,10.34,4.92,15.62,8.59a84.35,84.35,0,0,0,8.07,5.1c2.55,1.38,6.31,3.47,9,1.31,1.52-1.2,1.49-3.39,1.16-5.12a25.19,25.19,0,0,0-3.44-7.12c-.06-.08.08-.19.14-.1a35.29,35.29,0,0,1,3.76,6.34,8.32,8.32,0,0,1,.57,4.89c-.92,3.45-5,3.9-7.88,3a27.54,27.54,0,0,1-4.92-2.38c-1.52-.87-3-1.82-4.45-2.8-3-2-5.83-4.19-8.78-6.23a81.71,81.71,0,0,0-9-5.22C267.59,324.35,267.68,324.17,267.8,324.2Z" style="fill:#263238"></path><path d="M280.91,346.23c-1.62-3.57-10.39-18.44-13.24-21.88a.09.09,0,0,1,.13-.12c4.88,4.62,12.73,16.91,14.55,20.85s3.89,8.86,3.89,13.2c0,6.54-4.34,7.78-5.94,8.1a8.51,8.51,0,0,1-5.57-.91,17.12,17.12,0,0,1-5-4.74c-.07-.09.05-.22.12-.13,2.27,2.58,6,5.12,9.59,4.66a6,6,0,0,0,4.05-2.19,7.67,7.67,0,0,0,1-5.27C284.15,353.75,282.58,349.9,280.91,346.23Z" style="fill:#263238"></path><path d="M178.85,317.11l30.28,63.7s-118.44,26.61-128.66,6S116.25,285.48,137,262s30-16.62,24.49,8.65S142.53,330,142.53,330Z" style="fill:#F3BA00"></path><path d="M106.53,346.93a138.89,138.89,0,0,1,17.27-10.14,134.14,134.14,0,0,1,18.37-7.37c3.59-1.19,7.21-2.19,10.84-3.23.11,0,.15.14.05.18a171.27,171.27,0,0,0-18.56,7.22q-9,4-17.92,8.38c-3.35,1.64-6.62,3.44-9.92,5.2C106.51,347.25,106.39,347,106.53,346.93Z" style="fill:#263238"></path><path d="M178.54,316.92c-.6.16-33,10.85-34,11.35.13-.49,5.94-17.71,6.81-20.23.09-.26.16-.51.25-.76.59-1.13,1.18-2.25,1.73-3.39.7-1.48,1.39-2.95,2.08-4.43,0,0-.05-.08-.07,0q-1.14,2.16-2.26,4.33c-.35.66-.67,1.34-1,2,.57-1.78,1.11-3.57,1.66-5.36.87-2.86,1.65-5.74,2.42-8.63,0-.09-.11-.12-.14,0-1.72,5-3.6,10-5.33,15s-8.4,23.51-8.35,23.49,35.68-12.59,36.37-12.87A.23.23,0,0,0,178.54,316.92Z" style="fill:#263238"></path><path d="M180.72,358.48c-3.33-7.11-6.61-14.25-10.21-21.24-2-4-4.07-7.95-6.15-11.9-.08-.15-.34,0-.28.12,3.07,7.27,6.16,14.55,9.55,21.68s6.7,14.21,10.17,21.26c2,4,4.06,7.94,6.28,11.83,0,.08.17,0,.14-.07C187.4,372.79,184.08,365.64,180.72,358.48Z" style="fill:#263238"></path><path d="M210.66,381.81c-1.18-2-2.68-4.79-3.95-6.7-.33-.5-.72-.4-.45.13.9,1.78,1.65,3.78,2.54,5.61-1.66.33-3.33.63-5,1L198.05,383q-5.66,1.15-11.32,2.21-11.47,2.12-23,3.75a451.71,451.71,0,0,1-46.59,4.37c-4.36.16-8.73.24-13.09.18a127.15,127.15,0,0,1-12.89-.62c-.11,0-.14.18,0,.21a71.8,71.8,0,0,0,11.21,1.45q5.93.3,11.86.24c7.87-.09,15.74-.6,23.58-1.32q23.31-2.14,46.4-6.25,6.47-1.14,12.9-2.43c2.16-.44,4.32-.87,6.48-1.35S210.86,382.14,210.66,381.81Z" style="fill:#263238"></path><path d="M182.76,275.1c-8.26-.05-18.77-15.23-21.71-26.19-.2-.75,9-26.6,10.27-31.91.26-1.09,31.35,16.17,31.35,16.17s-6,10.34-8.16,19.62C194.33,253.56,190.74,275.14,182.76,275.1Z" style="fill:#ad6359"></path><path d="M190.7,254.75a19.42,19.42,0,0,0,3.3.6c.13-.65.25-1.2.33-1.62a.18.18,0,0,1,0-.06.68.68,0,0,1,0-.14c0-.16.06-.34.1-.51a.22.22,0,0,1,0-.1l0-.14a55.61,55.61,0,0,1,1.87-6.11,96.47,96.47,0,0,1,5.09-11.3c.16-.31.3-.58.44-.82.41-.77.67-1.23.73-1.35l0,0h0l-.82-.47-1.09-.6a0,0,0,0,1-.05,0l-.73-.39-.9-.51c-.26-.13-.55-.29-.83-.45l-.16-.09c-.34-.19-.71-.38-1.09-.6l-.25-.13-1.08-.6-.57-.3-1.76-1-1.34-.73-1.14-.62-3.9-2.1-1.26-.68c-1.54-.82-3.05-1.62-4.5-2.37-.33-.17-.65-.35-1-.5l-.64-.34-.76-.39-1.65-.84-1-.5c-.49-.25-.95-.47-1.38-.67-.22-.12-.43-.21-.63-.3-.59-.28-1.1-.51-1.53-.68l-.27-.12h0C172,226.22,172.69,249.93,190.7,254.75Z" style="fill:#263238"></path><path d="M180.65,177c-7.36,10.36-12.37,45.7-6.65,55.86,8.3,14.73,27.43,22.25,41.34,11,13.48-10.9,19.2-57.08,12.29-66.88C217.45,162.53,191.53,161.68,180.65,177Z" style="fill:#ad6359"></path><path d="M207,208.18c0-.1-.2.08-.21.18-.28,2.39-1,5.08-3.26,5.55-.07,0-.08.14,0,.14C206.22,214.07,207.13,210.48,207,208.18Z" style="fill:#263238"></path><path d="M205.25,205.38c-3.78-.85-5.21,6.78-1.7,7.57S208.42,206.09,205.25,205.38Z" style="fill:#263238"></path><path d="M220,211c0-.09.16.15.14.24-.52,2.35-.71,5.13,1.28,6.31.06,0,0,.16,0,.13C218.83,216.8,219.13,213.11,220,211Z" style="fill:#263238"></path><path d="M222.57,208.9c3.85.42,2.72,8.1-.85,7.71S219.34,208.54,222.57,208.9Z" style="fill:#263238"></path><path d="M202.89,201.33a30.33,30.33,0,0,0,3.15-.49,5.18,5.18,0,0,0,3.12-1.11,1.64,1.64,0,0,0,.1-2c-.95-1.23-2.49-1.35-3.95-1.17a6,6,0,0,0-3.86,1.91A1.75,1.75,0,0,0,202.89,201.33Z" style="fill:#263238"></path><path d="M226.24,205.61a28.17,28.17,0,0,1-2.89-1.36,5.16,5.16,0,0,1-2.68-1.94,1.64,1.64,0,0,1,.46-1.95c1.26-.91,2.77-.59,4.13,0a6,6,0,0,1,3.17,2.92A1.75,1.75,0,0,1,226.24,205.61Z" style="fill:#263238"></path><path d="M200.1,229.55c.46.66.89,1.53,1.73,1.76a6.42,6.42,0,0,0,2.65-.12.08.08,0,0,1,.08.14,3.24,3.24,0,0,1-3.24.73,2.59,2.59,0,0,1-1.47-2.44C199.84,229.47,200,229.46,200.1,229.55Z" style="fill:#263238"></path><path d="M203.91,222.94a8.18,8.18,0,0,0,4.7,4.59,10.35,10.35,0,0,0,2.87.67,2.69,2.69,0,0,0,.56,0l.54,0a.61.61,0,0,0,.57-.44v0a1.07,1.07,0,0,0,0-.25h0l0-.21c.39-1.81.73-4.61.73-4.61.61.45,3.71,2.61,3.84,1.65,1-8,2.11-16.8,1.43-24.93a.23.23,0,0,0-.45,0c-1.26,7.61-1.18,15.39-2.33,23.05a14.46,14.46,0,0,0-3.58-1.86c-.27,0-.56,5.42-.8,6.22l0,.08c-3.13-.18-5.26-1.53-7.84-4.14C204,222.6,203.8,222.73,203.91,222.94Z" style="fill:#263238"></path><path d="M210.58,227.08a9.71,9.71,0,0,1-4.38,2.24,4.35,4.35,0,0,1-2.64-.32c-1.79-.85-1.51-2.59-.89-4a10.74,10.74,0,0,1,1.27-2.11A12.55,12.55,0,0,0,210.58,227.08Z" style="fill:#263238"></path><path d="M206.2,229.32a4.35,4.35,0,0,1-2.64-.32c-1.79-.85-1.51-2.59-.89-4C204.65,225.58,206.4,227.33,206.2,229.32Z" style="fill:#ff99ba"></path><path d="M199.48,218.07a10.29,10.29,0,1,1,13.42-9.18h0a10.31,10.31,0,0,1-10.9,9.64A10.91,10.91,0,0,1,199.48,218.07Zm5.87-18.29a9.14,9.14,0,0,0-2.18-.41,8.91,8.91,0,1,0,2.18.41Z" style="fill:#F3BA00"></path><path d="M222.68,222.49c-3.75-1.21-5.92-6.14-4.89-11.41a12.31,12.31,0,0,1,3.52-6.64,6.41,6.41,0,0,1,10.77,2.11,12.26,12.26,0,0,1,.75,7.48c-1.09,5.57-5.35,9.44-9.49,8.62C223.11,222.61,222.9,222.55,222.68,222.49Zm4.85-18.55a4.07,4.07,0,0,0-.5-.13,5.47,5.47,0,0,0-4.78,1.64,10.92,10.92,0,0,0-3.11,5.9c-.94,4.82,1.05,9.29,4.46,10s6.94-2.71,7.88-7.54a10.82,10.82,0,0,0-.65-6.63A5.63,5.63,0,0,0,227.53,203.94Z" style="fill:#F3BA00"></path><path d="M212.33,210l-.67-1.21c1.79-1,5.67-2,7.62,1.1l-1.17.73C216.37,207.82,212.49,209.91,212.33,210Z" style="fill:#F3BA00"></path><path d="M166.83,203.78l-1.08-.85c.4-.51,4-4.91,7.09-4.81,2.91.1,20.67,5.34,21.43,5.57l-.39,1.32c-5.09-1.51-18.84-5.44-21.08-5.51C170.75,199.43,167.79,202.57,166.83,203.78Z" style="fill:#F3BA00"></path><path d="M229.23,193.25c-13.47,4.92-26.1-11-26.1-11a12.87,12.87,0,0,1-14.67,4.64s-7.23,18.83-12.33,17.48c-7.78-2-3.41-29.12.38-33.69s10.74-4.2,10.74-4.2,1.52-3.91,7.28-6.36c6.37-2.71,23.33,7.49,23.33,7.49a17.66,17.66,0,0,1,6.33-5.15A5,5,0,0,1,231,164.9a11.82,11.82,0,0,0-3.09,4.3c-2.38,5.45,2.26,6.63,3.54,1.47a8.24,8.24,0,0,0-.45-5.77c3.16-2.78,7.17-2.92,9-.53C243.22,168.69,240.44,189.17,229.23,193.25Z" style="fill:#263238"></path><path d="M178.72,206.5s-4.21-13.2-10-12-4.95,18.66.16,22.6a6.15,6.15,0,0,0,8.85-.7Z" style="fill:#ad6359"></path><path d="M169.11,199.48a.09.09,0,0,0-.08.15c3.54,2.9,4.51,7.32,4.79,11.67-.74-1.87-2.13-3.2-4.58-2.39-.13,0-.08.24,0,.25a3.79,3.79,0,0,1,3.59,2.5,18.08,18.08,0,0,1,.9,3.81c.08.42.79.43.78,0v-.11C176.26,210.2,174.49,201.73,169.11,199.48Z" style="fill:#263238"></path><path d="M194.92,250.89l-5.48,15.88L162.84,242l-7,7.95s23.73,39.64,23.88,37.85l10.46-17.12,9.37,12.05-.4-25.05Z" style="fill:#ebebeb"></path><path d="M200,268.06c-.3-4.88-.05-5.25-.58-10.12,0-.17-.28-.25-.33,0-1,4.71-.17,18.82-.21,23.3l-.05-.05c-.49-.52-8.52-10.64-8.63-10.48-1.77,2.68-10.05,15.21-10.46,16.33-3.75-6.3-18.14-29.19-22.58-35.15a.17.17,0,0,0-.3.17c3.31,6.65,22.35,37.47,22.64,37.39.2.15,9.94-15.23,10.84-18.09,1.74,2.16,9.86,13.54,9.9,12.82A156.82,156.82,0,0,0,200,268.06Z" style="fill:#263238"></path></g><g id="freepik--Desk--inject-7"><polygon points="47.44 402.76 98.08 402.51 148.72 402.43 250 402.26 351.28 402.42 401.92 402.51 452.56 402.76 401.92 403 351.28 403.09 250 403.26 148.72 403.09 98.08 403 47.44 402.76" style="fill:#263238"></polygon></g><g id="freepik--Device--inject-7"><rect x="220.37" y="400.14" width="137.57" height="6.17" style="fill:#455a64"></rect><rect x="288.7" y="400.14" width="69.24" height="6.17" style="fill:#263238"></rect><polygon points="296.15 406.31 430.22 406.31 447.75 315.25 313.68 315.25 296.15 406.31" style="fill:#455a64"></polygon><path d="M363.79,360.78a7.36,7.36,0,0,0,7.44,8.16,9.1,9.1,0,0,0,8.88-8.16,7.36,7.36,0,0,0-7.45-8.16A9.07,9.07,0,0,0,363.79,360.78Z" style="fill:#ebebeb"></path><polygon points="436.51 373.61 430.21 406.3 326.25 406.3 436.51 373.61" style="fill:#263238"></polygon></g><g id="freepik--Mug--inject-7"><rect x="93.71" y="428.39" width="25.14" height="3.92" style="fill:#455a64"></rect><rect x="93.71" y="428.39" width="25.14" height="2.59" style="fill:#263238"></rect><path d="M63.87,417.84A14.23,14.23,0,0,0,78,423.9a14.07,14.07,0,0,0,2.55-.74,17.91,17.91,0,0,0,3.56-1.86l-3.2-4.74a11.84,11.84,0,0,1-1.88,1.07c-6,2.71-9.78-2-10.53-3.08-3.44-4.85-4.68-15.91-1.18-20.17.23-.31,1.23-.81,5.29.05.74.17,1.59.36,2.55.62a10.15,10.15,0,0,0,2.3.5l.1-2.85.28-2.83c-.26-.05-.67-.17-1.2-.32a35.74,35.74,0,0,0-5.72-1.18c-3-.31-6.1,0-8,2.4C57.25,397.72,59.55,411.77,63.87,417.84Z" style="fill:#455a64"></path><path d="M80.93,416.56a11.84,11.84,0,0,1-1.88,1.07l1.52,5.53a17.91,17.91,0,0,0,3.56-1.86Z" style="fill:#263238"></path><path d="M70.94,388.37l1.69,6.06c.74.17,1.59.36,2.55.62a10.15,10.15,0,0,0,2.3.5l.1-2.85.28-2.83c-.26-.05-.67-.17-1.2-.32A35.74,35.74,0,0,0,70.94,388.37Z" style="fill:#263238"></path><path d="M139.73,381s-3,25.63-8.23,36.42-12.48,12-17,12H98.06c-4.51,0-11.79-1.2-17-12S72.84,381,72.84,381Z" style="fill:#455a64"></path><path d="M134.81,397.74a1.62,1.62,0,1,1,1.62-1.62A1.62,1.62,0,0,1,134.81,397.74Zm0-2.93a1.32,1.32,0,1,0,1.32,1.31A1.31,1.31,0,0,0,134.81,394.81Zm-47.66-5.35a1.62,1.62,0,1,1,1.61-1.62A1.62,1.62,0,0,1,87.15,389.46Zm0-2.93a1.32,1.32,0,1,0,1.31,1.31A1.32,1.32,0,0,0,87.15,386.53Zm2.38,26.54a1.62,1.62,0,1,1,1.61-1.62A1.63,1.63,0,0,1,89.53,413.07Zm0-2.93a1.32,1.32,0,1,0,1.31,1.31A1.32,1.32,0,0,0,89.53,410.14ZM76.39,385.23A1.61,1.61,0,1,1,78,383.62,1.62,1.62,0,0,1,76.39,385.23Zm0-2.92a1.32,1.32,0,1,0,1.32,1.31A1.31,1.31,0,0,0,76.39,382.31Zm22.44,12.95a1.61,1.61,0,1,1,1.61-1.61A1.62,1.62,0,0,1,98.83,395.26Zm0-2.92a1.32,1.32,0,1,0,1.31,1.31A1.32,1.32,0,0,0,98.83,392.34Zm17.5,20.05a1.61,1.61,0,1,1,1.62-1.61A1.62,1.62,0,0,1,116.33,412.39Zm0-2.92a1.32,1.32,0,1,0,1.32,1.31A1.31,1.31,0,0,0,116.33,409.47Zm-10.7-24.24a1.61,1.61,0,1,1,1.61-1.61A1.61,1.61,0,0,1,105.63,385.23Zm0-2.92a1.32,1.32,0,1,0,1.32,1.31A1.31,1.31,0,0,0,105.63,382.31Zm-2,23.63a1.61,1.61,0,1,1,1.62-1.61A1.62,1.62,0,0,1,103.63,405.94Zm0-2.93a1.32,1.32,0,1,0,1.32,1.32A1.32,1.32,0,0,0,103.63,403Zm-16,22.2a1.61,1.61,0,1,1,1.61-1.61A1.61,1.61,0,0,1,87.67,425.21Zm0-2.93A1.32,1.32,0,1,0,89,423.6,1.32,1.32,0,0,0,87.67,422.28Zm39.16-34.63a1.61,1.61,0,1,1,1.61-1.61A1.61,1.61,0,0,1,126.83,387.65Zm0-2.93a1.32,1.32,0,1,0,1.31,1.32A1.32,1.32,0,0,0,126.83,384.72ZM81.89,401.55a1.61,1.61,0,1,1,1.62-1.61A1.62,1.62,0,0,1,81.89,401.55Zm0-2.93a1.32,1.32,0,1,0,1.32,1.32A1.32,1.32,0,0,0,81.89,398.62Zm33-1.89a1.61,1.61,0,1,1,1.61-1.61A1.61,1.61,0,0,1,114.87,396.73Zm0-2.93a1.32,1.32,0,1,0,1.32,1.32A1.33,1.33,0,0,0,114.87,393.8Zm-11.24,29a1.61,1.61,0,1,1,1.62-1.61A1.62,1.62,0,0,1,103.63,422.78Zm0-2.92a1.32,1.32,0,1,0,1.32,1.31A1.31,1.31,0,0,0,103.63,419.86Zm13.56,8.74A1.61,1.61,0,1,1,118.8,427,1.61,1.61,0,0,1,117.19,428.6Zm0-2.93A1.32,1.32,0,1,0,118.5,427,1.32,1.32,0,0,0,117.19,425.67Zm9.64-21.19a1.61,1.61,0,1,1,1.61-1.61A1.62,1.62,0,0,1,126.83,404.48Zm0-2.93a1.32,1.32,0,1,0,1.31,1.32A1.32,1.32,0,0,0,126.83,401.55ZM128.29,419a1.62,1.62,0,1,1,1.61-1.62A1.62,1.62,0,0,1,128.29,419Zm0-2.93a1.32,1.32,0,1,0,1.32,1.31A1.32,1.32,0,0,0,128.29,416.08Z" style="fill:#fff"></path></g></svg>